<?html version="1.0" standalone="no"?>
<!DOCTYPE svg PUBLIC "-//W3C//DTD SVG 1.1//EN" "http://www.w3.org/Graphics/SVG/1.1/DTD/svg11.dtd">
<svg width="100%" height="100%" viewBox="0 0 339 339" version="1.1" xmlns="http://www.w3.org/2000/svg" xmlns:xlink="http://www.w3.org/1999/xlink" html:space="preserve" style="fill-rule:evenodd;clip-rule:evenodd;stroke-linejoin:round;stroke-miterlimit:1.41421;">
    <g transform="matrix(1,0,0,1,-5.0195,-42.3135)">
        <g id="face1-cut" transform="matrix(6.12323e-17,-1,-1,-6.12323e-17,343.981,311.814)">
            <path d="M155,10L135,10L135,243.923L40,243.923L40,263.923L135,263.923L135,328.923L155,328.923L155,10" style="fill:rgb(0,63,129);fill-rule:nonzero;"/>
        </g>
        <g id="face4-cut" transform="matrix(6.12323e-17,-1,-1,-6.12323e-17,343.981,311.814)">
            <path d="M160,83.038L160,129.226L190,111.906L190,65.718L160,83.038" style="fill:rgb(12,152,64);fill-rule:nonzero;"/>
        </g>
        <g id="face2-cut" transform="matrix(6.12323e-17,-1,-1,-6.12323e-17,343.981,311.814)">
            <path d="M40,75L40,95.359L125,95.359L125,10L105,10L105,75L40,75" style="fill:rgb(0,63,129);fill-rule:nonzero;"/>
        </g>
        <g id="face3-cut" transform="matrix(6.12323e-17,-1,-1,-6.12323e-17,343.981,311.814)">
            <path d="M190,227.376L160,210.056L160,256.244L190,273.564L190,227.376" style="fill:rgb(12,152,64);fill-rule:nonzero;"/>
        </g>
        <g id="face0-cut" transform="matrix(6.12323e-17,-1,-1,-6.12323e-17,343.981,311.814)">
            <path d="M130,100.359L10,169.641L130,238.923L130,100.359M112.701,167.497L110.102,167.61L107.562,167.047L105.255,165.846L103.337,164.088L101.939,161.894L101.157,159.413L101.043,156.814L101.606,154.274L102.808,151.966L104.565,150.048L106.759,148.651L109.24,147.868L110.888,147.656L112.548,147.596L114.207,147.689L115.85,147.936L117.463,148.332L119.033,148.876L120.546,149.562L121.99,150.385L123.351,151.337L124.618,152.411L125.782,153.597L126.83,154.886L126.286,156.455L125.598,157.968L124.774,159.411L123.821,160.771L122.746,162.038L121.559,163.2L120.27,164.248L118.889,165.173L117.43,165.966L115.903,166.621L114.322,167.133L112.701,167.497M59.23,149.71L59.478,148.076L60.005,146.51L60.797,145.06L61.828,143.769L63.068,142.677L64.478,141.816L66.017,141.214L67.637,140.888L69.289,140.848L70.922,141.096L72.488,141.623L73.938,142.415L87.614,153.856L90.217,155.678L92.463,157.925L94.286,160.527L95.628,163.407L96.451,166.476L96.728,169.641L96.451,172.806L95.628,175.875L94.286,178.755L92.463,181.357L90.217,183.604L87.614,185.426L73.938,196.867L72.488,197.659L70.922,198.186L69.289,198.434L67.637,198.394L66.017,198.068L64.478,197.466L63.068,196.605L61.828,195.513L60.797,194.222L60.005,192.772L59.478,191.206L59.23,189.572L59.087,187.899L58.999,186.222L58.966,184.543L58.989,182.863L59.067,181.186L59.2,179.512L59.388,177.843L59.631,176.181L59.928,174.528L60.279,172.886L60.685,171.257L61.143,169.641L60.685,168.026L60.279,166.396L59.928,164.754L59.631,163.101L59.388,161.439L59.2,159.77L59.067,158.096L58.989,156.419L58.966,154.739L58.999,153.06L59.087,151.383L59.23,149.71M98.275,149.109L95.735,149.672L93.136,149.559L90.655,148.776L88.461,147.379L86.703,145.46L85.502,143.153L84.939,140.613L85.052,138.014L85.835,135.533L87.233,133.339L89.151,131.581L91.458,130.38L93.044,129.884L94.669,129.537L96.318,129.341L97.979,129.298L99.637,129.409L101.277,129.672L102.886,130.085L104.451,130.645L105.957,131.346L107.392,132.184L108.743,133.15L110,134.237L109.736,135.877L109.321,137.486L108.76,139.049L108.058,140.555L107.219,141.989L106.252,143.34L105.164,144.596L103.966,145.746L102.666,146.781L101.276,147.691L99.808,148.469L98.275,149.109M109.24,191.493L106.759,190.711L104.565,189.313L102.808,187.395L101.606,185.088L101.043,182.548L101.157,179.949L101.939,177.468L103.337,175.274L105.255,173.516L107.562,172.315L110.102,171.752L112.701,171.865L114.322,172.229L115.903,172.741L117.43,173.396L118.889,174.189L120.27,175.114L121.559,176.161L122.746,177.324L123.821,178.591L124.774,179.951L125.598,181.394L126.286,182.906L126.83,184.476L125.782,185.764L124.618,186.95L123.351,188.024L121.99,188.977L120.546,189.8L119.033,190.486L117.463,191.03L115.85,191.426L114.207,191.672L112.548,191.766L110.888,191.706L109.24,191.493M91.458,208.902L89.151,207.701L87.233,205.943L85.835,203.749L85.052,201.268L84.939,198.669L85.502,196.129L86.703,193.822L88.461,191.904L90.655,190.506L93.136,189.723L95.735,189.61L98.275,190.173L99.808,190.813L101.276,191.591L102.666,192.501L103.966,193.536L105.164,194.686L106.252,195.942L107.219,197.293L108.058,198.727L108.76,200.233L109.321,201.796L109.736,203.405L110,205.046L108.743,206.132L107.392,207.098L105.957,207.936L104.451,208.638L102.886,209.197L101.277,209.61L99.637,209.873L97.979,209.984L96.318,209.941L94.669,209.745L93.044,209.398L91.458,208.902" style="fill:rgb(12,152,64);fill-rule:nonzero;"/>
        </g>
    </g>
</svg>
